<svg xmlns="http://www.w3.org/2000/svg" width="512" height="512" viewBox="0 0 512 512" fill="none">
  <g stroke="#8B5CF6" stroke-width="22" fill="none" stroke-linejoin="round" stroke-linecap="round">
    <!-- Cross outline (perimeter of + shape) -->
    <path d="M233 58 L279 58 L279 104 L325 104 L325 150 L279 150 L279 162 L233 162 L233 150 L187 150 L187 104 L233 104 Z"/>
    <!-- Left book page -->
    <path d="M88 168 L170 168 L256 282 L256 382 Q256 410 230 410 L118 410 Q88 410 88 380 Z"/>
    <!-- Right book page -->
    <path d="M424 168 L342 168 L256 282 L256 382 Q256 410 282 410 L394 410 Q424 410 424 380 Z"/>
  </g>
</svg>
